<mxfile host="app.diagrams.net" modified="2023-08-01T06:22:53.687Z" agent="Mozilla/5.0 (Windows NT 10.0; Win64; x64) AppleWebKit/537.36 (KHTML, like Gecko) Chrome/114.0.0.0 Safari/537.36 Edg/114.0.1823.79" version="21.6.6" etag="EGrFPH660IwTk54oq6vi" type="github">
  <diagram name="第 1 页" id="IphVwLyVgE1Ik6uaCd57">
    <mxGraphModel>
      <root>
        <mxCell id="0" />
        <mxCell id="1" parent="0" />
      </root>
    </mxGraphModel>
  </diagram>
</mxfile>
